<svg width="26" height="27" viewBox="0 0 26 27" fill="none" xmlns="http://www.w3.org/2000/svg">
<g clip-path="url(#clip0_1376_402)">
<path d="M8.78573 15.4154L12.6164 19.245C12.718 19.3465 12.8557 19.4035 12.9994 19.4035C13.143 19.4035 13.2807 19.3465 13.3823 19.245L17.213 15.4154C17.3146 15.3138 17.4523 15.2568 17.5959 15.2568C17.7396 15.2568 17.8773 15.3138 17.9789 15.4154L19.6646 17.1C19.7661 17.2015 19.8232 17.3393 19.8232 17.4829C19.8232 17.6265 19.7661 17.7643 19.6646 17.8659L13.3823 24.1481C13.2807 24.2497 13.143 24.3067 12.9994 24.3067C12.8557 24.3067 12.718 24.2497 12.6164 24.1481L6.33523 17.8659C6.23368 17.7643 6.17664 17.6265 6.17664 17.4829C6.17664 17.3393 6.23368 17.2015 6.33523 17.1L8.0209 15.4154C8.12248 15.3138 8.26023 15.2568 8.40386 15.2568C8.54749 15.2568 8.68524 15.3138 8.78682 15.4154H8.78573ZM21.8876 11.3691L21.9623 11.432L23.648 13.1165C23.7377 13.2062 23.7931 13.3244 23.8046 13.4507C23.8161 13.577 23.7829 13.7034 23.7108 13.8077L23.648 13.8835L21.9623 15.5681C21.8727 15.6579 21.7544 15.7133 21.6281 15.7248C21.5018 15.7362 21.3755 15.703 21.2711 15.631L21.1964 15.5681L19.5107 13.8825C19.4214 13.7928 19.3664 13.6746 19.3551 13.5486C19.3438 13.4225 19.377 13.2965 19.449 13.1924L19.5107 13.1165L21.1964 11.432C21.2746 11.3537 21.3748 11.3013 21.4837 11.2818C21.5925 11.2622 21.7047 11.2764 21.8052 11.3225L21.8876 11.3691ZM4.8034 11.432L6.48906 13.1165C6.59061 13.2181 6.64766 13.3559 6.64766 13.4995C6.64766 13.6431 6.59061 13.7809 6.48906 13.8825L4.8034 15.5692C4.70182 15.6707 4.56407 15.7278 4.42044 15.7278C4.27681 15.7278 4.13906 15.6707 4.03748 15.5692L2.35073 13.8825C2.24918 13.7809 2.19214 13.6431 2.19214 13.4995C2.19214 13.3559 2.24918 13.2181 2.35073 13.1165L4.0364 11.432C4.13798 11.3304 4.27573 11.2734 4.41936 11.2734C4.56299 11.2734 4.70182 11.3304 4.8034 11.432ZM13.3076 11.3691L13.3834 11.432L15.068 13.1165C15.1577 13.2062 15.2131 13.3244 15.2246 13.4507C15.2361 13.577 15.2029 13.7034 15.1308 13.8077L15.068 13.8835L13.3834 15.5681C13.2938 15.6579 13.1755 15.7133 13.0492 15.7248C12.9229 15.7362 12.7966 15.703 12.6922 15.631L12.6164 15.5681L10.9318 13.8825C10.8424 13.7929 10.7871 13.6748 10.7756 13.5488C10.7641 13.4227 10.7972 13.2966 10.869 13.1924L10.9318 13.1165L12.6164 11.432C12.6946 11.3537 12.7948 11.3013 12.9037 11.2818C13.0125 11.2622 13.1247 11.2764 13.2252 11.3225L13.3076 11.3691ZM13.3834 2.85195L19.6646 9.13312C19.7661 9.2347 19.8232 9.37245 19.8232 9.51608C19.8232 9.65971 19.7661 9.79746 19.6646 9.89904L17.9789 11.5847C17.8773 11.6862 17.7396 11.7433 17.5959 11.7433C17.4523 11.7433 17.3146 11.6862 17.213 11.5847L13.3834 7.75512C13.3331 7.70468 13.2733 7.66465 13.2075 7.63735C13.1417 7.61004 13.0711 7.59598 12.9999 7.59598C12.9286 7.59598 12.8581 7.61004 12.7923 7.63735C12.7265 7.66465 12.6667 7.70468 12.6164 7.75512L8.78682 11.5847C8.68524 11.6862 8.54749 11.7433 8.40386 11.7433C8.26023 11.7433 8.12248 11.6862 8.0209 11.5847L6.33523 9.89904C6.23368 9.79746 6.17664 9.65971 6.17664 9.51608C6.17664 9.37245 6.23368 9.2347 6.33523 9.13312L12.6164 2.85195C12.718 2.75041 12.8557 2.69336 12.9994 2.69336C13.143 2.69336 13.2818 2.75041 13.3834 2.85195Z" fill="#FFC900"/>
</g>
<defs>
<clipPath id="clip0_1376_402">
<rect width="26" height="26" fill="white" transform="translate(0 0.5)"/>
</clipPath>
</defs>
</svg>
